<svg width="32" height="32" viewBox="0 0 32 32" fill="none" xmlns="http://www.w3.org/2000/svg">
<circle cx="16" cy="16" r="16" fill="#7FBC42"/>
<path d="M19.7071 15.3382L14.5567 10.2656C14.4721 10.1814 14.3715 10.1146 14.2606 10.069C14.1497 10.0235 14.0308 10 13.9107 10C13.7905 10 13.6716 10.0235 13.5607 10.069C13.4498 10.1146 13.3492 10.1814 13.2646 10.2656C13.0951 10.4338 13 10.6613 13 10.8985C13 11.1357 13.0951 11.3633 13.2646 11.5315L17.7689 16.0206L13.2646 20.4647C13.0951 20.633 13 20.8605 13 21.0977C13 21.3349 13.0951 21.5624 13.2646 21.7307C13.3489 21.8155 13.4494 21.883 13.5603 21.9292C13.6712 21.9754 13.7903 21.9995 13.9107 22C14.0311 21.9995 14.1502 21.9754 14.2611 21.9292C14.372 21.883 14.4725 21.8155 14.5567 21.7307L19.7071 16.658C19.7994 16.5739 19.8731 16.4719 19.9236 16.3583C19.974 16.2448 20 16.1221 20 15.9981C20 15.8741 19.974 15.7515 19.9236 15.6379C19.8731 15.5243 19.7994 15.4223 19.7071 15.3382Z" fill="white"/>
</svg>
